<mxfile host="app.diagrams.net" modified="2023-10-30T15:47:36.148Z" agent="Mozilla/5.0 (Windows NT 10.0; Win64; x64) AppleWebKit/537.36 (KHTML, like Gecko) Chrome/116.0.5845.931 YaBrowser/23.9.3.931 Yowser/2.5 Safari/537.36" version="22.0.8" etag="vLYd3g64aaaKFnxOBlxL" type="github">
  <diagram name="Страница — 1" id="gjBoaom5rG-FsvTeerhJ">
    <mxGraphModel>
      <root>
        <mxCell id="0" />
        <mxCell id="1" parent="0" />
      </root>
    </mxGraphModel>
  </diagram>
</mxfile>
